<svg width="42" height="30" viewBox="0 0 42 30" fill="none" xmlns="http://www.w3.org/2000/svg">
<path d="M7.18182 1H0.600586V2.94477H7.71364L7.18182 1Z" fill="#06C43B"/>
<path d="M13.0318 22.3925H41.3068V20.9339H14.4943L41.3068 15.8289V2.94477H11.0818H7.71364L13.0318 22.3925Z" fill="#06C43B"/>
<path d="M7.18182 1L7.71364 2.94477H11.0818L10.5943 1H7.18182Z" fill="#06C43B"/>
<path d="M7.18182 1H0.600586V2.94477H7.71364M7.18182 1L7.71364 2.94477M7.18182 1H10.5943L11.0818 2.94477M7.71364 2.94477L13.0318 22.3925H41.3068V20.9339H14.4943L41.3068 15.8289V2.94477H11.0818M7.71364 2.94477H11.0818" stroke="#06C43B"/>
<path d="M16.6756 26.039C16.6756 27.6412 15.3729 28.9423 13.7631 28.9423C12.1533 28.9423 10.8506 27.6412 10.8506 26.039C10.8506 24.4368 12.1533 23.1356 13.7631 23.1356C15.3729 23.1356 16.6756 24.4368 16.6756 26.039Z" fill="#06C43B" stroke="#06C43B"/>
<path d="M38.1258 26.039C38.1258 27.6412 36.8231 28.9423 35.2133 28.9423C33.6035 28.9423 32.3008 27.6412 32.3008 26.039C32.3008 24.4368 33.6035 23.1356 35.2133 23.1356C36.8231 23.1356 38.1258 24.4368 38.1258 26.039Z" fill="#06C43B" stroke="#06C43B"/>
</svg>
