<svg width="36" height="31" viewBox="0 0 36 31" fill="none" xmlns="http://www.w3.org/2000/svg">
<path d="M7.73437 27.2754H26.3914V30.3427H31.7623V25.3235L26.3914 7.7562H7.73437L3.49414 25.3235V30.3427H7.73437V27.2754Z" fill="#06C43B" stroke="#06C43B"/>
<path d="M27.5215 5.80426H6.60306L5.75501 8.87157C3.79284 9.24284 2.78852 9.28081 1.2321 8.87157C0.350894 6.36696 0.207982 4.96272 1.2321 2.45811C13.2402 1.09666 20.4912 1.11073 34.3059 2.45811C35.2534 4.45543 35.2095 5.88315 34.3059 8.87157C32.7467 9.59753 31.6402 9.74461 28.6522 8.87157L27.5215 5.80426Z" fill="#06C43B" stroke="#06C43B"/>
<path d="M24.4777 18.0735C24.4777 19.5027 23.7239 20.8308 22.4379 21.8174C21.1513 22.8045 19.3525 23.4293 17.3453 23.4293C15.3381 23.4293 13.5392 22.8045 12.2527 21.8174C10.9667 20.8308 10.2129 19.5027 10.2129 18.0735C10.2129 16.6443 10.9667 15.3162 12.2527 14.3295C13.5392 13.3425 15.3381 12.7177 17.3453 12.7177C19.3525 12.7177 21.1513 13.3425 22.4379 14.3295C23.7239 15.3162 24.4777 16.6443 24.4777 18.0735Z" fill="white" stroke="#06C43B"/>
<ellipse cx="17.6277" cy="17.7946" rx="2.26145" ry="2.23077" fill="#06C43B"/>
<path d="M21.6511 15.0062C21.6511 15.3396 21.3752 15.6216 21.0204 15.6216C20.6656 15.6216 20.3896 15.3396 20.3896 15.0062C20.3896 14.6727 20.6656 14.3908 21.0204 14.3908C21.3752 14.3908 21.6511 14.6727 21.6511 15.0062Z" fill="#06C43B" stroke="#06C43B"/>
<path d="M14.3005 15.0062C14.3005 15.3396 14.0246 15.6216 13.6698 15.6216C13.315 15.6216 13.0391 15.3396 13.0391 15.0062C13.0391 14.6727 13.315 14.3908 13.6698 14.3908C14.0246 14.3908 14.3005 14.6727 14.3005 15.0062Z" fill="#06C43B" stroke="#06C43B"/>
<path d="M21.6511 21.1408C21.6511 21.4743 21.3752 21.7562 21.0204 21.7562C20.6656 21.7562 20.3896 21.4743 20.3896 21.1408C20.3896 20.8074 20.6656 20.5254 21.0204 20.5254C21.3752 20.5254 21.6511 20.8074 21.6511 21.1408Z" fill="#06C43B" stroke="#06C43B"/>
<path d="M14.3005 21.1408C14.3005 21.4743 14.0246 21.7562 13.6698 21.7562C13.315 21.7562 13.0391 21.4743 13.0391 21.1408C13.0391 20.8074 13.315 20.5254 13.6698 20.5254C14.0246 20.5254 14.3005 20.8074 14.3005 21.1408Z" fill="#06C43B" stroke="#06C43B"/>
</svg>
